<?xml version="1.0" encoding="utf-8"?>
<!-- Generator: Adobe Illustrator 21.0.0, SVG Export Plug-In . SVG Version: 6.00 Build 0)  -->
<svg version="1.1" id="Layer_1" xmlns="http://www.w3.org/2000/svg" xmlns:xlink="http://www.w3.org/1999/xlink" x="0px" y="0px"
	 viewBox="0 0 268.3 244.2" style="enable-background:new 0 0 268.3 244.2;" xml:space="preserve">
<style type="text/css">
	.st0{fill:#EB8D23;}
	.st1{fill:#4DAD7B;}
	.st2{fill:#FCCB2C;}
	.st3{fill:#3E3A37;}
	.st4{fill:#8B5E3C;}
</style>
<g>
	<g>
		<g>
			<g>
				<path class="st0" d="M96.9,17.8c1.4,5.3,7.7,8.2,7.7,8.2s3-4.3,2.8-9c0.1,4.6-2.8,8.8-2.8,8.8s-6.3-2.9-7.7-8.2
					c-0.2-0.7-0.3-1.3-0.3-2C96.6,16.4,96.7,17.1,96.9,17.8z"/>
				<path class="st0" d="M67.5,31.5c2.7,4.7,9.5,5.9,9.5,5.9s0.9-2.6,0.9-5.7c0,3-0.9,5.6-0.9,5.6s-6.8-1.2-9.5-6
					c-1-1.7-1.3-3.7-1.3-5.6C66.1,27.7,66.4,29.7,67.5,31.5z"/>
				<path class="st0" d="M42.6,52.4c3.9,3.9,10.8,3.3,10.8,3.3s0-0.4,0-1.1c0,0.7,0,1.1,0,1.1S46.4,56.2,42.6,52.4
					c-2.9-3-3.3-7.5-3.3-9.7C39.3,44.8,39.6,49.4,42.6,52.4z"/>
				<path class="st0" d="M31.3,71.4c4.5,2.6,3.7,11.1,3.9,11.1h0C35.1,82.6,36,74.2,31.3,71.4c-4.7-2.8-9.2-2-9.2-2s0,0,0,0
					C22.1,69.4,26.5,68.7,31.3,71.4z"/>
				<path class="st0" d="M15.5,99.2c-5.3-1.4-10.9,2.6-10.9,2.6s0,0.1,0.1,0.1c0.6-0.4,5.9-3.8,10.9-2.5c4.8,1.3,7.7,6.7,8.1,7.6
					c0,0,0.1-0.1,0.1-0.1S20.8,100.6,15.5,99.2z"/>
				<path class="st0" d="M9.9,131.5c4.9,0,9,4.3,9.8,5.1c0.1-0.1,0.1-0.2,0.1-0.2s-4.4-5.3-9.9-5.3c-5.5,0-9.9,5.3-9.9,5.3
					s0.1,0.1,0.1,0.2C0.9,135.8,5,131.5,9.9,131.5z"/>
				<path class="st0" d="M12.8,163.5c-5.3,1.4-8.2,7.7-8.2,7.7s0.1,0.1,0.2,0.1c0.7-1.3,3.5-6.1,8-7.4c4.8-1.3,9.8,1.8,10.8,2.4
					c0.1-0.2,0.2-0.3,0.2-0.3S18.1,162.1,12.8,163.5z"/>
				<path class="st0" d="M255.5,163.5c-5.3-1.4-10.9,2.6-10.9,2.6s2.9,6.3,8.2,7.7c5.3,1.4,10.9-2.5,10.9-2.5S260.8,165,255.5,163.5
					z"/>
				<path class="st0" d="M248.5,136.5c0,0,4.4,5.3,9.9,5.3c5.5,0,9.9-5.3,9.9-5.3s-4.4-5.3-9.9-5.3
					C252.9,131.2,248.5,136.5,248.5,136.5z"/>
				<path class="st0" d="M244.6,106.9c0,0,5.6,4,10.9,2.6c5.3-1.4,8.2-7.7,8.2-7.7s-5.7-4-10.9-2.5
					C247.5,100.6,244.6,106.9,244.6,106.9z"/>
				<path class="st0" d="M244.4,79c4.7-2.7,5.9-9.5,5.9-9.5s-6.5-2.4-11.2,0.4c-4.7,2.7-5.9,9.5-5.9,9.5S239.7,81.7,244.4,79z"/>
				<path class="st0" d="M225.8,52.4c3.9-3.9,3.3-10.8,3.3-10.8s-6.9-0.6-10.8,3.3c-3.9,3.9-3.3,10.7-3.3,10.7
					S221.9,56.3,225.8,52.4z"/>
				<path class="st0" d="M200.9,31.5c2.7-4.7,0.4-11.2,0.4-11.2s-6.8,1.2-9.5,5.9c-2.7,4.7-0.4,11.2-0.4,11.2S198.1,36.3,200.9,31.5
					z"/>
				<path class="st0" d="M171.4,17.8c1.4-5.3-2.5-10.9-2.5-10.9s-6.3,2.9-7.7,8.2c-1.4,5.3,2.6,11,2.6,11S170,23.1,171.4,17.8z"/>
				<path class="st0" d="M115.1,62.7c0.2,1.2,0.4,2.4,0.4,3.6C115.5,65.1,115.3,63.9,115.1,62.7z"/>
				<path class="st0" d="M93.1,62.5c-0.1-1-0.3-1.9-0.3-2.9C92.8,60.6,92.9,61.5,93.1,62.5z"/>
				<path class="st0" d="M78.2,62.4c0.7,1.6,1.1,3.4,1.1,5.1C79.3,65.8,78.9,64.1,78.2,62.4z"/>
				<path class="st0" d="M104.6,25.9c0,0,3-4.2,2.8-8.8c0-0.7-0.1-1.4-0.3-2.2c-1.4-5.3-7.7-8.2-7.7-8.2s-3,4.4-2.8,9
					c0,0.7,0.1,1.3,0.3,2C98.3,23,104.6,25.9,104.6,25.9z"/>
				<path class="st0" d="M77,37.4c0,0,0.9-2.5,0.9-5.6c0-1.9-0.3-3.9-1.3-5.7c-2.7-4.8-9.5-6-9.5-6s-0.9,2.6-0.9,5.7
					c0,1.8,0.3,3.8,1.3,5.6C70.2,36.2,77,37.4,77,37.4z"/>
				<path class="st0" d="M53.3,55.6c0,0,0-0.4,0-1.1c0-2.1-0.4-6.8-3.3-9.7c-3.9-3.9-10.7-3.3-10.7-3.3s0,0.4,0,1.2
					c0,2.1,0.4,6.7,3.3,9.6C46.4,56.2,53.3,55.6,53.3,55.6z"/>
				<path class="st0" d="M35.1,79.4C35.1,79.4,35.1,79.4,35.1,79.4c-0.1-0.7-1.4-6.4-5.9-9C24.5,67.7,18,70.6,18,70.6h0
					c0,0,1.2,6.3,5.9,9C28.6,82.3,35.1,79.4,35.1,79.4z"/>
				<path class="st0" d="M15.5,99.4c-5-1.3-10.2,2.1-10.9,2.5c0,0-0.1,0.1-0.1,0.1s2.9,6.3,8.2,7.7c5.3,1.4,10.9-2.6,10.9-2.6
					s0-0.1-0.1-0.1C23.2,106,20.3,100.7,15.5,99.4z"/>
				<path class="st0" d="M9.9,142.1c5.5,0,9.9-5.3,9.9-5.3s0-0.1-0.1-0.2c-0.8-0.9-4.8-5.1-9.8-5.1c-4.9,0-9,4.3-9.8,5.1
					c-0.1,0.1-0.1,0.2-0.1,0.2S4.4,142.1,9.9,142.1z"/>
				<path class="st0" d="M12.8,164c-4.5,1.2-7.3,6-8,7.4c-0.1,0.2-0.2,0.4-0.2,0.4s5.6,4,10.9,2.6c5.3-1.4,8.2-7.7,8.2-7.7
					s-0.1,0-0.2-0.1C22.6,165.8,17.5,162.7,12.8,164z"/>
				<path class="st0" d="M132.9,19.8c0,0,4.2-3,5.7-7.3c0.2-0.7,0.4-1.4,0.5-2.1c0.5-5.5-4.3-10.4-4.3-10.4s-4.4,3-5.8,7.5
					c-0.2,0.6-0.4,1.3-0.4,2C128.1,14.9,132.9,19.8,132.9,19.8z"/>
			</g>
		</g>
	</g>
	<g>
		<g>
			<g>
				<path class="st1" d="M174.7,93.7c0,0-0.2,0.1-0.4,0.2c0,0.1,0,0.1,0,0.2C174.4,94,174.5,93.9,174.7,93.7z"/>
				<path class="st1" d="M68.4,124.6c0,0,3.2,14.3,13.6,19.6c10.3,5.3,23.9-0.3,23.9-0.3s-3.2-14.3-13.6-19.6
					C82,118.9,68.4,124.6,68.4,124.6z"/>
				<path class="st1" d="M109.5,94.2c-7.2-6.6-18.3-7.6-18.3-7.6s-3.9,14.2,2.8,23.7c6.6,9.5,21.3,10.9,21.3,10.9s3.1-11.4-1.1-20.6
					c-0.5-1.1-1-2.1-1.7-3.1C111.5,96.3,110.5,95.2,109.5,94.2z"/>
				<path class="st1" d="M122.2,83.1c-0.5,4,0.6,7.9,2.1,11c0,0.1,0.1,0.1,0.1,0.2c2,4.2,4.6,7,4.6,7s10.1-6.4,11.4-15.7
					c1.3-9.4-6.7-18.2-6.7-18.2s-1.8,1.2-4,3.2c-1.5,1.4-3.1,3.1-4.4,5.2C123.7,77.9,122.6,80.4,122.2,83.1z"/>
				<path class="st1" d="M172,83.5c0,0-11.9-1.2-18.7,5.5c-6.8,6.6-5.8,18.5-5.8,18.5s11.9,1.2,18.7-5.4
					C172.9,95.4,172,83.5,172,83.5z"/>
			</g>
		</g>
		<path class="st1" d="M203.7,152.9c-9.6-3.6-20.9,2.8-20.9,2.8s4.3,12.2,13.9,15.8c9.6,3.6,20.9-2.8,20.9-2.8
			S213.2,156.5,203.7,152.9z"/>
		<path class="st2" d="M204.2,115.3c9.3-4.2,12.8-16.7,12.8-16.7s-11.7-5.6-21-1.4c-9.3,4.2-12.8,16.7-12.8,16.7
			S194.9,119.6,204.2,115.3z"/>
		<path class="st1" d="M161.9,129.2c0,0,7.2,10.8,17.3,11.9c10.2,1.1,19.5-7.8,19.5-7.8s-7.2-10.8-17.3-11.9
			C171.2,120.3,161.9,129.2,161.9,129.2z"/>
		<path class="st2" d="M133.4,33c-0.2,0,0.1,0,0.1,0v23.9c-6.4-0.3-12.7-5.5-12.7-12c0,0,0,0,0,0.1c0,6.6,5.4,12,12,12
			c6.6,0,12.3-5.4,12.3-12C145,38.3,140,33,133.4,33z"/>
		<path class="st2" d="M222,122.3c-6.6,0-12,5.4-12,12c0,6.6,5.4,12,12,12c6.6,0,12-5.4,12-12C234,127.7,228.6,122.3,222,122.3z"/>
		<ellipse transform="matrix(0.7073 -0.707 0.707 0.7073 7.05 159.2817)" class="st2" cx="195.9" cy="71.1" rx="12" ry="12"/>
		<path class="st2" d="M113.7,62.7C109.5,53.4,97,49.9,97,49.9s-3.1,6.6-2.9,13.8c0,0.9,0.1,1.8,0.3,2.7c0.2,1.5,0.6,3.1,1.3,4.5
			c4.2,9.4,16.7,12.9,16.7,12.9s3.1-6.6,2.9-13.8c0-1.1-0.2-2.3-0.4-3.4C114.7,65.3,114.3,64,113.7,62.7z"/>
		<path class="st2" d="M68.7,97.2c-9.4-3.5-20.3,2.5-20.8,2.8c0,0,0,0,0,0s4.3,12.3,13.9,15.9c9.6,3.6,20.9-2.8,20.9-2.8
			s0-0.1-0.1-0.2C82,111.5,77.6,100.6,68.7,97.2z"/>
		<path class="st2" d="M55.2,152.4c-9,2.1-14.6,11.6-15.7,13.6c-0.1,0.2-0.2,0.4-0.2,0.4s10.3,7.8,20.3,5.5
			c10-2.3,15.8-13.9,15.8-13.9s0,0-0.1-0.1C74.5,157.1,64.7,150.1,55.2,152.4z"/>
		<path class="st2" d="M133.5,56.9V33v-0.1c-6.4,0.3-12.7,5.6-12.7,12c0,0,0,0,0,0C120.7,51.4,127.1,56.6,133.5,56.9z"/>
		<path class="st2" d="M61,79.7c4.7,4.7,12.3,4.7,17,0c2.3-2.4,3.5-5.5,3.5-8.5c0-1.6-0.3-3.2-1-4.8c-0.6-1.4-1.4-2.6-2.5-3.7
			c-4.7-4.7-12.3-4.7-17,0c-1.1,1.1-2,2.4-2.5,3.8c-0.6,1.5-1,3.1-1,4.7C57.5,74.2,58.7,77.3,61,79.7z"/>
		<path class="st2" d="M45,122.5c-6.6,0-10.3,5.3-10.3,11.9c0,0.1,0,0.1,0,0.1c0,6.7,3.7,12.1,10.4,12.1c6.6,0,11.2-5.4,11.2-12.1
			c0,0,0.4-0.1,0.4-0.1C56.5,127.9,51.6,122.5,45,122.5z"/>
	</g>
	<path class="st2" d="M151.7,72.4c0,0,11.9-1.3,17.1-9.2c5.2-7.9,1.8-19.3,1.8-19.3s-11.9,1.4-17.1,9.3
		C148.3,60.9,151.7,72.4,151.7,72.4z"/>
	<path class="st3" d="M162.1,120.9c-2.4,0.8-4.7,1.2-6.7,1.4c-3.8,4.9-7.2,11-9.1,18.4c0,0-8.2-17.1-28.3-25.1c1,1,2,2.2,2.8,3.4
		c0.6,1,1.1,2.1,1.6,3.2c5.9,6.6,11.5,17.3,10.1,33.7c0,0-6.8-8.6-23.7-4.1c0,0,37.3,17.8,18.5,85.6c0,0,14.8,3.4,28.5,0.3
		C155.7,237.7,139,158.6,162.1,120.9z"/>
	<g>
		<g>
			<path class="st4" d="M140.1,233.8c-20.5,0-46.5-0.1-65.5,10.5c43.8-4.4,87.2-4.4,131,0C186.6,233.7,160.6,233.8,140.1,233.8z"/>
		</g>
	</g>
</g>
</svg>
